<svg width="17" height="8" viewBox="0 0 17 8" fill="none" xmlns="http://www.w3.org/2000/svg">
<g clip-path="url(#clip0)">
<path d="M15.3998 4.56842C15.3643 4.60888 15.3257 4.64303 15.2852 4.67273L12.5722 7.77312C12.3075 8.07546 11.8781 8.0756 11.6134 7.77298C11.3486 7.4705 11.3486 6.97991 11.6134 6.67715L13.9498 4.00694L11.6013 1.32281C11.3365 1.02034 11.3365 0.529889 11.6013 0.226982C11.7338 0.0754561 11.9074 -1.95503e-05 12.0807 -1.95503e-05C12.2539 -1.95503e-05 12.4277 0.0754561 12.56 0.226982L15.2852 3.34172C15.3257 3.37142 15.3645 3.40557 15.3998 3.44604C15.5351 3.60072 15.6004 3.80448 15.5972 4.00723C15.6004 4.20998 15.5351 4.41359 15.3998 4.56842Z" fill="black"/>
</g>
<rect y="3" width="10" height="2" rx="1" fill="black"/>
<defs>
<clipPath id="clip0">
<rect width="7" height="8" fill="white" transform="translate(17 8) rotate(-180)"/>
</clipPath>
</defs>
</svg>
